{
    "asset" : {
        "generator" : "Khronos glTF Blender I/O v1.6.16",
        "version" : "2.0"
    },
    "extensionsUsed" : [
        "KHR_materials_clearcoat"
    ],
    "scene" : 0,
    "scenes" : [
        {
            "name" : "Scene",
            "nodes" : [
                0,
                1,
                2,
                3,
                4
            ]
        }
    ],
    "nodes" : [
        {
            "name" : "Light",
            "rotation" : [
                0.16907575726509094,
                0.7558803558349609,
                -0.27217137813568115,
                0.570947527885437
            ],
            "translation" : [
                4.076245307922363,
                5.903861999511719,
                -1.0054539442062378
            ]
        },
        {
            "name" : "Camera",
            "rotation" : [
                0.483536034822464,
                0.33687159419059753,
                -0.20870360732078552,
                0.7804827094078064
            ],
            "translation" : [
                7.358891487121582,
                4.958309173583984,
                6.925790786743164
            ]
        },
        {
            "name" : "Plane",
            "rotation" : [
                0,
                0,
                -0.7069240808486938,
                0.707289457321167
            ],
            "scale" : [
                0.5301486253738403,
                0.5461762547492981,
                0.557153046131134
            ]
        },
        {
            "mesh" : 0,
            "name" : "Plane.001",
            "rotation" : [
                -0.03623679280281067,
                -0.025235500186681747,
                0.887043833732605,
                0.459568589925766
            ],
            "scale" : [
                0.8112277388572693,
                0.9999896287918091,
                0.707766056060791
            ],
            "translation" : [
                -0.07437355071306229,
                0.6760148406028748,
                -0.006499331444501877
            ]
        },
        {
            "name" : "Panton Chair",
            "rotation" : [
                0.7071068286895752,
                0,
                0,
                0.7071067094802856
            ]
        }
    ],
    "materials" : [
        {
            "doubleSided" : true,
            "extensions" : {
                "KHR_materials_clearcoat" : {
                    "clearcoatFactor" : 1,
                    "clearcoatRoughnessFactor" : 0
                }
            },
            "name" : "Material.001",
            "pbrMetallicRoughness" : {
                "baseColorFactor" : [
                    0.8000000715255737,
                    0.005507087334990501,
                    0,
                    1
                ],
                "metallicFactor" : 0,
                "roughnessFactor" : 0.5
            }
        }
    ],
    "meshes" : [
        {
            "name" : "Plane.003",
            "primitives" : [
                {
                    "attributes" : {
                        "POSITION" : 0,
                        "NORMAL" : 1,
                        "TEXCOORD_0" : 2
                    },
                    "indices" : 3,
                    "material" : 0
                }
            ]
        }
    ],
    "accessors" : [
        {
            "bufferView" : 0,
            "componentType" : 5126,
            "count" : 998,
            "max" : [
                0.9567310214042664,
                0.5806081891059875,
                1.2132924795150757
            ],
            "min" : [
                -1.720359444618225,
                -1.4437578916549683,
                -1.2132924795150757
            ],
            "type" : "VEC3"
        },
        {
            "bufferView" : 1,
            "componentType" : 5126,
            "count" : 998,
            "type" : "VEC3"
        },
        {
            "bufferView" : 2,
            "componentType" : 5126,
            "count" : 998,
            "type" : "VEC2"
        },
        {
            "bufferView" : 3,
            "componentType" : 5123,
            "count" : 5184,
            "type" : "SCALAR"
        }
    ],
    "bufferViews" : [
        {
            "buffer" : 0,
            "byteLength" : 11976,
            "byteOffset" : 0
        },
        {
            "buffer" : 0,
            "byteLength" : 11976,
            "byteOffset" : 11976
        },
        {
            "buffer" : 0,
            "byteLength" : 7984,
            "byteOffset" : 23952
        },
        {
            "buffer" : 0,
            "byteLength" : 10368,
            "byteOffset" : 31936
        }
    ],
    "buffers" : [
        {
            "byteLength" : 42304,
            "uri" : "data:application/octet-stream;base64,"
        }
    ]
}
